<svg width="14" height="21" viewBox="0 0 14 21" fill="none" xmlns="http://www.w3.org/2000/svg">
<path fill-rule="evenodd" clip-rule="evenodd" d="M12.9209 10.9769C12.2016 10.0737 11.3254 9.52988 10.2925 9.34555C11.2885 8.99532 12.0817 8.45155 12.6719 7.71423C13.2622 6.9769 13.5573 6.05525 13.5573 4.94927C13.5573 4.02762 13.3175 3.19813 12.8379 2.46081C12.3584 1.70506 11.6482 1.10598 10.7075 0.663591C9.7668 0.221197 8.64163 0 7.33202 0H0V21H3.14844V16.4541H3.15415V10.6451H7.30435C8.37418 10.6451 9.23188 10.9216 9.87747 11.4746C10.5231 12.0276 10.8458 12.7741 10.8458 13.7142C10.8458 14.6358 10.5415 15.3547 9.93281 15.8708C9.32411 16.387 8.48485 16.645 7.41502 16.645H4.54844V19.2204L4.55 19.2164H7.6917C8.96443 19.2164 10.0804 18.9952 11.0395 18.5528C11.9987 18.092 12.7273 17.4745 13.2253 16.7003C13.7418 15.9077 14 15.0229 14 14.046C14 12.9031 13.6403 11.8801 12.9209 10.9769ZM7.05534 8.07367H3.15415V2.57141H7.05534C8.08827 2.57141 8.89065 2.82025 9.46245 3.31795C10.0527 3.79721 10.3478 4.47001 10.3478 5.33636C10.3478 6.22115 10.0527 6.90317 9.46245 7.38243C8.89065 7.84326 8.08827 8.07367 7.05534 8.07367Z" fill="#373737"/>
<path fill-rule="evenodd" clip-rule="evenodd" d="M6.82344 2.57141H3.15415V8.07367H6.82344V10.6451H3.15415V16.4541H3.14844V21H0V0H6.82344V2.57141Z" fill="white"/>
</svg>

