<svg width="115" height="40" viewBox="0 0 115 40" fill="none" xmlns="http://www.w3.org/2000/svg">
  <g clip-path="url(#clip0_2623_7432)">
  <path fill-rule="evenodd" clip-rule="evenodd" d="M21.5349 21.628C20.336 20.1227 18.8757 19.2164 17.1542 18.9092C18.8142 18.3255 20.1361 17.4192 21.1199 16.1903C22.1036 14.9614 22.5955 13.4253 22.5955 11.582C22.5955 10.046 22.1959 8.66347 21.3966 7.4346C20.5973 6.17501 19.4137 5.17656 17.8458 4.43924C16.278 3.70191 14.4027 3.33325 12.22 3.33325H0V38.3333H5.2474V30.7568H5.25692V21.075H12.1739C13.957 21.075 15.3865 21.5359 16.4625 22.4575C17.5384 23.3792 18.0764 24.6234 18.0764 26.1902C18.0764 27.7263 17.5692 28.9244 16.5547 29.7847C15.5402 30.6449 14.1414 31.075 12.3584 31.075H7.58073V35.3672L7.58333 35.3606H12.8195C14.9407 35.3606 16.8006 34.992 18.3992 34.2547C19.9978 33.4866 21.2121 32.4574 22.0422 31.1671C22.9029 29.8461 23.3333 28.3715 23.3333 26.7432C23.3333 24.8385 22.7339 23.1334 21.5349 21.628ZM11.7589 16.7894H5.25692V7.61893H11.7589C13.4805 7.61893 14.8177 8.03368 15.7708 8.86316C16.7545 9.66193 17.2464 10.7833 17.2464 12.2272C17.2464 13.7018 16.7545 14.8385 15.7708 15.6373C14.8177 16.4053 13.4805 16.7894 11.7589 16.7894Z" fill="white"/>
  <path fill-rule="evenodd" clip-rule="evenodd" d="M11.3724 7.61893H5.25692V16.7894H11.3724V21.075H5.25692V30.7568H5.2474V38.3333H0V3.33325H11.3723C11.3723 3.33328 11.3724 3.33331 11.3724 3.33333V7.61893Z" fill="#FFD42B"/>
  <path d="M37.8667 10.2267C38.3911 10.3244 38.8222 10.5867 39.16 11.0133C39.4978 11.44 39.6667 11.9289 39.6667 12.48C39.6667 12.9778 39.5422 13.4178 39.2933 13.8C39.0533 14.1733 38.7022 14.4667 38.24 14.68C37.7778 14.8933 37.2311 15 36.6 15H32.5867V5.69333H36.4267C37.0578 5.69333 37.6 5.79556 38.0533 6C38.5156 6.20444 38.8622 6.48889 39.0933 6.85333C39.3333 7.21778 39.4533 7.63111 39.4533 8.09333C39.4533 8.63556 39.3067 9.08889 39.0133 9.45333C38.7289 9.81778 38.3467 10.0756 37.8667 10.2267ZM34.4533 9.53333H36.16C36.6044 9.53333 36.9467 9.43556 37.1867 9.24C37.4267 9.03556 37.5467 8.74667 37.5467 8.37333C37.5467 8 37.4267 7.71111 37.1867 7.50667C36.9467 7.30222 36.6044 7.2 36.16 7.2H34.4533V9.53333ZM36.3333 13.48C36.7867 13.48 37.1378 13.3733 37.3867 13.16C37.6444 12.9467 37.7733 12.6444 37.7733 12.2533C37.7733 11.8533 37.64 11.5422 37.3733 11.32C37.1067 11.0889 36.7467 10.9733 36.2933 10.9733H34.4533V13.48H36.3333ZM49.3544 11.1467C49.3544 11.4133 49.3366 11.6533 49.301 11.8667H43.901C43.9455 12.4 44.1322 12.8178 44.461 13.12C44.7899 13.4222 45.1944 13.5733 45.6744 13.5733C46.3677 13.5733 46.861 13.2756 47.1544 12.68H49.1677C48.9544 13.3911 48.5455 13.9778 47.941 14.44C47.3366 14.8933 46.5944 15.12 45.7144 15.12C45.0033 15.12 44.3633 14.9644 43.7944 14.6533C43.2344 14.3333 42.7944 13.8844 42.4744 13.3067C42.1633 12.7289 42.0077 12.0622 42.0077 11.3067C42.0077 10.5422 42.1633 9.87111 42.4744 9.29333C42.7855 8.71556 43.221 8.27111 43.781 7.96C44.341 7.64889 44.9855 7.49333 45.7144 7.49333C46.4166 7.49333 47.0433 7.64444 47.5944 7.94667C48.1544 8.24889 48.5855 8.68 48.8877 9.24C49.1988 9.79111 49.3544 10.4267 49.3544 11.1467ZM47.421 10.6133C47.4122 10.1333 47.2388 9.75111 46.901 9.46667C46.5633 9.17333 46.1499 9.02667 45.661 9.02667C45.1988 9.02667 44.8077 9.16889 44.4877 9.45333C44.1766 9.72889 43.9855 10.1156 43.9144 10.6133H47.421ZM54.2235 9.14667V12.72C54.2235 12.9689 54.2813 13.1511 54.3969 13.2667C54.5213 13.3733 54.7258 13.4267 55.0102 13.4267H55.8769V15H54.7035C53.1302 15 52.3435 14.2356 52.3435 12.7067V9.14667H51.4635V7.61333H52.3435V5.78667H54.2235V7.61333H55.8769V9.14667H54.2235ZM58.0728 11.28C58.0728 10.5333 58.2195 9.87111 58.5128 9.29333C58.815 8.71556 59.2195 8.27111 59.7261 7.96C60.2417 7.64889 60.815 7.49333 61.4461 7.49333C61.9973 7.49333 62.4773 7.60444 62.8861 7.82667C63.3039 8.04889 63.6373 8.32889 63.8861 8.66667V7.61333H65.7661V15H63.8861V13.92C63.6461 14.2667 63.3128 14.5556 62.8861 14.7867C62.4684 15.0089 61.9839 15.12 61.4328 15.12C60.8106 15.12 60.2417 14.96 59.7261 14.64C59.2195 14.32 58.815 13.8711 58.5128 13.2933C58.2195 12.7067 58.0728 12.0356 58.0728 11.28ZM63.8861 11.3067C63.8861 10.8533 63.7973 10.4667 63.6195 10.1467C63.4417 9.81778 63.2017 9.56889 62.8995 9.4C62.5973 9.22222 62.2728 9.13333 61.9261 9.13333C61.5795 9.13333 61.2595 9.21778 60.9661 9.38667C60.6728 9.55556 60.4328 9.80444 60.2461 10.1333C60.0684 10.4533 59.9795 10.8356 59.9795 11.28C59.9795 11.7244 60.0684 12.1156 60.2461 12.4533C60.4328 12.7822 60.6728 13.0356 60.9661 13.2133C61.2684 13.3911 61.5884 13.48 61.9261 13.48C62.2728 13.48 62.5973 13.3956 62.8995 13.2267C63.2017 13.0489 63.4417 12.8 63.6195 12.48C63.7973 12.1511 63.8861 11.76 63.8861 11.3067ZM38.3333 25.6933V27.2H34.4533V29.5867H37.4267V31.0667H34.4533V35H32.5867V25.6933H38.3333ZM47.857 31.1467C47.857 31.4133 47.8392 31.6533 47.8037 31.8667H42.4037C42.4481 32.4 42.6348 32.8178 42.9637 33.12C43.2925 33.4222 43.697 33.5733 44.177 33.5733C44.8703 33.5733 45.3637 33.2756 45.657 32.68H47.6703C47.457 33.3911 47.0481 33.9778 46.4437 34.44C45.8392 34.8933 45.097 35.12 44.217 35.12C43.5059 35.12 42.8659 34.9644 42.297 34.6533C41.737 34.3333 41.297 33.8844 40.977 33.3067C40.6659 32.7289 40.5103 32.0622 40.5103 31.3067C40.5103 30.5422 40.6659 29.8711 40.977 29.2933C41.2881 28.7156 41.7237 28.2711 42.2837 27.96C42.8437 27.6489 43.4881 27.4933 44.217 27.4933C44.9192 27.4933 45.5459 27.6444 46.097 27.9467C46.657 28.2489 47.0881 28.68 47.3903 29.24C47.7014 29.7911 47.857 30.4267 47.857 31.1467ZM45.9237 30.6133C45.9148 30.1333 45.7414 29.7511 45.4037 29.4667C45.0659 29.1733 44.6525 29.0267 44.1637 29.0267C43.7014 29.0267 43.3103 29.1689 42.9903 29.4533C42.6792 29.7289 42.4881 30.1156 42.417 30.6133H45.9237ZM52.4195 25.1333V35H50.5528V25.1333H52.4195ZM57.4638 25.1333V35H55.5971V25.1333H57.4638ZM63.9214 35.12C63.2102 35.12 62.5702 34.9644 62.0014 34.6533C61.4325 34.3333 60.9836 33.8844 60.6547 33.3067C60.3347 32.7289 60.1747 32.0622 60.1747 31.3067C60.1747 30.5511 60.3391 29.8844 60.668 29.3067C61.0058 28.7289 61.4636 28.2844 62.0414 27.9733C62.6191 27.6533 63.2636 27.4933 63.9747 27.4933C64.6858 27.4933 65.3302 27.6533 65.908 27.9733C66.4858 28.2844 66.9391 28.7289 67.268 29.3067C67.6058 29.8844 67.7747 30.5511 67.7747 31.3067C67.7747 32.0622 67.6014 32.7289 67.2547 33.3067C66.9169 33.8844 66.4547 34.3333 65.868 34.6533C65.2902 34.9644 64.6414 35.12 63.9214 35.12ZM63.9214 33.4933C64.2591 33.4933 64.5747 33.4133 64.868 33.2533C65.1702 33.0844 65.4102 32.8356 65.588 32.5067C65.7658 32.1778 65.8547 31.7778 65.8547 31.3067C65.8547 30.6044 65.668 30.0667 65.2947 29.6933C64.9302 29.3111 64.4814 29.12 63.948 29.12C63.4147 29.12 62.9658 29.3111 62.6014 29.6933C62.2458 30.0667 62.068 30.6044 62.068 31.3067C62.068 32.0089 62.2414 32.5511 62.588 32.9333C62.9436 33.3067 63.388 33.4933 63.9214 33.4933ZM80.7173 27.6133L78.5573 35H76.544L75.1973 29.84L73.8506 35H71.824L69.6506 27.6133H71.544L72.8506 33.24L74.264 27.6133H76.2373L77.624 33.2267L78.9306 27.6133H80.7173ZM85.8873 35.12C85.2829 35.12 84.7406 35.0133 84.2606 34.8C83.7806 34.5778 83.3984 34.28 83.114 33.9067C82.8384 33.5333 82.6873 33.12 82.6606 32.6667H84.5406C84.5762 32.9511 84.714 33.1867 84.954 33.3733C85.2029 33.56 85.5095 33.6533 85.874 33.6533C86.2295 33.6533 86.5051 33.5822 86.7006 33.44C86.9051 33.2978 87.0073 33.1156 87.0073 32.8933C87.0073 32.6533 86.8829 32.4756 86.634 32.36C86.394 32.2356 86.0073 32.1022 85.474 31.96C84.9229 31.8267 84.4695 31.6889 84.114 31.5467C83.7673 31.4044 83.4651 31.1867 83.2073 30.8933C82.9584 30.6 82.834 30.2044 82.834 29.7067C82.834 29.2978 82.9495 28.9244 83.1806 28.5867C83.4206 28.2489 83.7584 27.9822 84.194 27.7867C84.6384 27.5911 85.1584 27.4933 85.754 27.4933C86.634 27.4933 87.3362 27.7156 87.8606 28.16C88.3851 28.5956 88.674 29.1867 88.7273 29.9333H86.9406C86.914 29.64 86.7895 29.4089 86.5673 29.24C86.354 29.0622 86.0651 28.9733 85.7006 28.9733C85.3629 28.9733 85.1006 29.0356 84.914 29.16C84.7362 29.2844 84.6473 29.4578 84.6473 29.68C84.6473 29.9289 84.7717 30.12 85.0206 30.2533C85.2695 30.3778 85.6562 30.5067 86.1806 30.64C86.714 30.7733 87.154 30.9111 87.5006 31.0533C87.8473 31.1956 88.1451 31.4178 88.394 31.72C88.6517 32.0133 88.7851 32.4044 88.794 32.8933C88.794 33.32 88.674 33.7022 88.434 34.04C88.2029 34.3778 87.8651 34.6444 87.4206 34.84C86.9851 35.0267 86.474 35.12 85.8873 35.12ZM95.8196 27.5067C96.3796 27.5067 96.8774 27.6311 97.3129 27.88C97.7485 28.12 98.0863 28.48 98.3263 28.96C98.5751 29.4311 98.6996 30 98.6996 30.6667V35H96.8329V30.92C96.8329 30.3333 96.6863 29.8844 96.3929 29.5733C96.0996 29.2533 95.6996 29.0933 95.1929 29.0933C94.6774 29.0933 94.2685 29.2533 93.9663 29.5733C93.6729 29.8844 93.5263 30.3333 93.5263 30.92V35H91.6596V25.1333H93.5263V28.5333C93.7663 28.2133 94.0863 27.9644 94.4863 27.7867C94.8863 27.6 95.3307 27.5067 95.8196 27.5067ZM102.755 26.7333C102.426 26.7333 102.15 26.6311 101.928 26.4267C101.715 26.2133 101.608 25.9511 101.608 25.64C101.608 25.3289 101.715 25.0711 101.928 24.8667C102.15 24.6533 102.426 24.5467 102.755 24.5467C103.084 24.5467 103.355 24.6533 103.568 24.8667C103.79 25.0711 103.901 25.3289 103.901 25.64C103.901 25.9511 103.79 26.2133 103.568 26.4267C103.355 26.6311 103.084 26.7333 102.755 26.7333ZM103.675 27.6133V35H101.808V27.6133H103.675ZM108.719 28.68C108.959 28.3422 109.288 28.0622 109.706 27.84C110.132 27.6089 110.617 27.4933 111.159 27.4933C111.79 27.4933 112.359 27.6489 112.866 27.96C113.381 28.2711 113.786 28.7156 114.079 29.2933C114.381 29.8622 114.532 30.5244 114.532 31.28C114.532 32.0356 114.381 32.7067 114.079 33.2933C113.786 33.8711 113.381 34.32 112.866 34.64C112.359 34.96 111.79 35.12 111.159 35.12C110.617 35.12 110.137 35.0089 109.719 34.7867C109.31 34.5644 108.977 34.2844 108.719 33.9467V38.52H106.852V27.6133H108.719V28.68ZM112.626 31.28C112.626 30.8356 112.532 30.4533 112.346 30.1333C112.168 29.8044 111.928 29.5556 111.626 29.3867C111.332 29.2178 111.012 29.1333 110.666 29.1333C110.328 29.1333 110.008 29.2222 109.706 29.4C109.412 29.5689 109.172 29.8178 108.986 30.1467C108.808 30.4756 108.719 30.8622 108.719 31.3067C108.719 31.7511 108.808 32.1378 108.986 32.4667C109.172 32.7956 109.412 33.0489 109.706 33.2267C110.008 33.3956 110.328 33.48 110.666 33.48C111.012 33.48 111.332 33.3911 111.626 33.2133C111.928 33.0356 112.168 32.7822 112.346 32.4533C112.532 32.1244 112.626 31.7333 112.626 31.28Z" fill="white"/>
  </g>
  <defs>
  <clipPath id="clip0_2623_7432">
  <rect width="115.001" height="40" fill="white"/>
  </clipPath>
  </defs>
</svg>
